# xmcd
#
# Track frame offsets: 
#        182
#        10095
#        24800
#        38145
#        50967
#        62227
#        72395
#        84695
#        98325
#        110737
#        121645
#        141975
#
# Disc length: 2086 seconds
#
# Revision: 5
# Processed by: cddbd v1.5.2PL0 Copyright (c) Steve Scherf et al.
# Submitted via: ExactAudioCopy v0.99pb4
#
DISCID=9e08240c
DTITLE=Hank Thompson - Hank Thompson and Friends
DYEAR=1997
DGENRE=Country
TTITLE0=Hank Thompson and Vince Gill - Six Pack To Go
TTITLE1=Hank Thompson and David Ball - Get The Hell Out Of Dodge
TTITLE2=Hank Thompson and Junior Brown - Gotta' Sell Them Chickens
TTITLE3=Hank Thompson and Bekka Barmlett - I Picked A San Antonio Rose
TTITLE4=Hank Thompson - Sobering Up
TTITLE5=Hank Thompson and Marty Stuart - Green Light
TTITLE6=Hank Thompson - I'll Still Be Here Tomorrow
TTITLE7=Hank Thompson and Brooks and Dunn - Hooked On Honky Tonk
TTITLE8=Hank Thompson and George Jones - Hey George, Hey Hank
TTITLE9=Hank Thompson and Lyle Lovett - Total Stranger
TTITLE10=Hank Thompson, Tanya Tucker and KittyWells - The Wild Side Of L
TTITLE10=ife
TTITLE11=Hank Thompson and Delaney and Bonnie - Dry Bread
EXTD=
EXTT0=
EXTT1=
EXTT2=
EXTT3=
EXTT4=
EXTT5=
EXTT6=
EXTT7=
EXTT8=
EXTT9=
EXTT10=
EXTT11=
PLAYORDER=
